# xmcd
#
# Track frame offsets:
#	150
#	1856
#	17591
#	44333
#	67717
#	88465
#	93138
#	119413
#	143522
#	168692
#	184518
#	209592
#	211280
#	236357
#	256079
#	277729
#	299014
#
# Disc length: 4199 seconds
#
# Revision: 0
# Processed by: cddbd v1.5.2PL0 Copyright (c) Steve Scherf et al.
# Submitted via: EZCDAudioConverter 8.0.2.1
#
DISCID=e6106511
DTITLE=Ngọc Anh - st. Phú Quang . Vol 11. 69′59″
DYEAR=2005
DGENRE=
TTITLE0=Ngọc Anh - Quán thời gian (intro)
TTITLE1=Ngọc Anh - Thành phố đêm
TTITLE2=Ngọc Anh - Khúc mùa thu
TTITLE3=Ngọc Anh, Trọng Tấn - Điều giản dị
TTITLE4=Ngọc Anh - Phía tối tâm hồn tôi
TTITLE5=Ngọc Anh - Quán thời gian (interlude Ⅰ)
TTITLE6=Ngọc Anh - Trong giấc mơ xưa
TTITLE7=Ngọc Anh - Lãng đãng chiều đông Hà Nội
TTITLE8=Ngọc Anh - Đã có một thời
TTITLE9=Ngọc Anh - Về lại phố xưa
TTITLE10=Ngọc Anh - Biển, nỗi nhớ và em
TTITLE11=Ngọc Anh - Quán thời gian (interlude Ⅱ)
TTITLE12=Ngọc Anh - Chiều phủ Tây Hồ
TTITLE13=Ngọc Anh - Kỉ niệm của tôi
TTITLE14=Ngọc Anh - Nỗi nhớ mùa đông
TTITLE15=Ngọc Anh - Trước mồ cha
TTITLE16=Ngọc Anh - Quán thời gian (outro)
EXTD=
EXTT0=
EXTT1=
EXTT2=
EXTT3=
EXTT4=
EXTT5=
EXTT6=
EXTT7=
EXTT8=
EXTT9=
EXTT10=
EXTT11=
EXTT12=
EXTT13=
EXTT14=
EXTT15=
EXTT16=
PLAYORDER=
